# xmcd
#
# Track frame offsets: 
#        150
#        26743
#        47613
#        73553
#        96145
#        115263
#        138809
#        158364
#        182833
#        200717
#
# Disc length: 3024 seconds
#
# Revision: 1
# Processed by: cddbd v1.5.2PL0 Copyright (c) Steve Scherf et al.
# Submitted via: ExactAudioCopy v1.0b3
#
DISCID=810bce0a
DTITLE=Son Tuyen, Tuan Vu - Hai Mua Mua
DYEAR=1992
DGENRE=Country
TTITLE0=Son Tuyen - Hai mua mua
TTITLE1=Son Tuyen - Em biet anh di chang tro ve
TTITLE2=Han Mac Tu
TTITLE3=Son Tuyen - Vuon tao ngo
TTITLE4=Mua rung
TTITLE5=Son Tuyen - Ha Tien
TTITLE6=Dinh menh
TTITLE7=Son Tuyen - Giot le dai trang
TTITLE8=Khuya nay anh di roi
TTITLE9=Son Tuyen - Tam su nguoi linh tre
EXTD=
EXTT0=
EXTT1=
EXTT2=
EXTT3=
EXTT4=
EXTT5=
EXTT6=
EXTT7=
EXTT8=
EXTT9=
PLAYORDER=
